# xmcd CD database file
#
# Track frame offsets:
#	150
#	14624
#	30750
#	51456
#	66633
#	80384
#	96820
#	114761
#	136364
#	154066
#	170754
#	186572
#	209629
#
# Disc length: 3028 seconds
#
# Revision: 0
# Processed by: cddbd v1.5.2PL0 Copyright (c) Steve Scherf et al.
# Submitted via: CDex 1.51
#
DISCID=b90bd20d
DTITLE=Tobey Lucas - 83
DYEAR=2013
DGENRE=Country
TTITLE0=Down In Louisiana
TTITLE1=You'll Be Waiting There
TTITLE2=Travellin' Thru
TTITLE3=Sunrise Breaking Up The Night Of Blue
TTITLE4=Up On The Mountain
TTITLE5=Try To Stay Real
TTITLE6=Don't Let Em Take Your Heart
TTITLE7=Time Passing By
TTITLE8=There She Goes (Hand In Hand With The Devil)
TTITLE9=Get Back Home
TTITLE10=Children Of Love
TTITLE11=Wheel Of Change
TTITLE12=Wanna Hold Your Hand
EXTD=YEAR: 2013
EXTT0=
EXTT1=
EXTT2=
EXTT3=
EXTT4=
EXTT5=
EXTT6=
EXTT7=
EXTT8=
EXTT9=
EXTT10=
EXTT11=
EXTT12=
PLAYORDER=
